<mxfile host="app.diagrams.net" modified="2020-07-28T07:31:06.609Z" agent="5.0 (Windows NT 10.0; Win64; x64) AppleWebKit/537.36 (KHTML, like Gecko) Chrome/83.0.4103.61 Safari/537.36" etag="d-5KLwicXqJjhwp9mvJy" version="13.5.3" type="github" pages="2">
  <diagram name="Page-1" id="9361dd3d-8414-5efd-6122-117bd74ce7a7">
    <mxGraphModel dx="2476" dy="1528" grid="1" gridSize="10" guides="1" tooltips="1" connect="1" arrows="1" fold="1" page="0" pageScale="1.5" pageWidth="826" pageHeight="1169" background="#ffffff" math="0" shadow="0">
      <root>
        <mxCell id="0" />
        <mxCell id="1" parent="0" />
        <mxCell id="69" value="" style="fillColor=#DEE8FF;strokeColor=none" parent="1" vertex="1">
          <mxGeometry x="-170" y="20" width="1570" height="800" as="geometry" />
        </mxCell>
        <mxCell id="20" value="" style="fillColor=#CCD5EB" parent="1" vertex="1">
          <mxGeometry x="130" y="370.28" width="1460" height="390" as="geometry" />
        </mxCell>
        <mxCell id="81" value="" style="edgeStyle=elbowEdgeStyle;elbow=horizontal;endArrow=none;dashed=1" parent="1" edge="1">
          <mxGeometry x="1460" y="437.8935185185186" width="100" height="100" as="geometry">
            <mxPoint x="1354.5" y="610" as="sourcePoint" />
            <mxPoint x="1354.5" y="770" as="targetPoint" />
          </mxGeometry>
        </mxCell>
        <mxCell id="2" value="" style="fillColor=#CC4125;strokeColor=#660000" parent="1" vertex="1">
          <mxGeometry x="200" y="150" width="10" height="130" as="geometry" />
        </mxCell>
        <mxCell id="3" value="登录" style="edgeStyle=none;verticalLabelPosition=top;verticalAlign=bottom;labelPosition=left;align=right" parent="1" edge="1">
          <mxGeometry x="110" y="49.5" width="100" height="100" as="geometry">
            <mxPoint x="110" y="149.5" as="sourcePoint" />
            <mxPoint x="200" y="149.5" as="targetPoint" />
          </mxGeometry>
        </mxCell>
        <mxCell id="4" value="web" style="shadow=1;fillColor=#A2C4C9;strokeColor=none" parent="1" vertex="1">
          <mxGeometry x="152.5" y="60" width="105" height="50" as="geometry" />
        </mxCell>
        <mxCell id="6" value="" style="fillColor=#CC4125;strokeColor=#660000" parent="1" vertex="1">
          <mxGeometry x="342.5" y="180" width="10" height="80" as="geometry" />
        </mxCell>
        <mxCell id="7" value="交易网关" style="shadow=1;fillColor=#A2C4C9;strokeColor=none" parent="1" vertex="1">
          <mxGeometry x="295" y="60" width="105" height="50" as="geometry" />
        </mxCell>
        <mxCell id="8" value="" style="edgeStyle=none;endArrow=none;dashed=1" parent="1" source="7" target="6" edge="1">
          <mxGeometry x="272.3350694444445" y="165" width="100" height="100" as="geometry">
            <mxPoint x="347.2588734567901" y="110" as="sourcePoint" />
            <mxPoint x="347.5761959876544" y="165" as="targetPoint" />
          </mxGeometry>
        </mxCell>
        <mxCell id="9" value="请求(HTTP/GRPC)" style="edgeStyle=none;verticalLabelPosition=top;verticalAlign=bottom" parent="1" edge="1">
          <mxGeometry x="220" y="92" width="100" height="100" as="geometry">
            <mxPoint x="210" y="179.5" as="sourcePoint" />
            <mxPoint x="340" y="179.5" as="targetPoint" />
          </mxGeometry>
        </mxCell>
        <mxCell id="15" value="REITs" style="shadow=1;fillColor=#A2C4C9;strokeColor=none" parent="1" vertex="1">
          <mxGeometry x="462.2839506172839" y="59.99999999999997" width="105" height="50" as="geometry" />
        </mxCell>
        <mxCell id="17" value="" style="fillColor=#CC4125;strokeColor=#660000" parent="1" vertex="1">
          <mxGeometry x="509.7839506172839" y="269.3942901234568" width="10" height="130" as="geometry" />
        </mxCell>
        <mxCell id="21" value="" style="fillColor=#CC4125;strokeColor=#660000" parent="1" vertex="1">
          <mxGeometry x="670" y="269.3942901234568" width="10" height="80" as="geometry" />
        </mxCell>
        <mxCell id="22" value="UUMS" style="shadow=1;fillColor=#A2C4C9;strokeColor=none" parent="1" vertex="1">
          <mxGeometry x="622.5" y="60" width="105" height="50" as="geometry" />
        </mxCell>
        <mxCell id="23" value="" style="edgeStyle=none;endArrow=none;dashed=1" parent="1" source="YypcNVnMSKggXqCYCxA9-91" target="21" edge="1">
          <mxGeometry x="614.4878472222224" y="174.99999999999997" width="100" height="100" as="geometry">
            <mxPoint x="674.6527777777778" y="110" as="sourcePoint" />
            <mxPoint x="674.6527777777778" y="260" as="targetPoint" />
          </mxGeometry>
        </mxCell>
        <mxCell id="24" value="存储网关" style="shadow=1;fillColor=#A2C4C9;strokeColor=none" parent="1" vertex="1">
          <mxGeometry x="750" y="60" width="105" height="50" as="geometry" />
        </mxCell>
        <mxCell id="25" value="" style="edgeStyle=none;endArrow=none;dashed=1" parent="1" source="24" target="26" edge="1">
          <mxGeometry x="727.3350694444446" y="165" width="100" height="100" as="geometry">
            <mxPoint x="802.2588734567901" y="110" as="sourcePoint" />
            <mxPoint x="802.5761959876544" y="165" as="targetPoint" />
          </mxGeometry>
        </mxCell>
        <mxCell id="26" value="" style="fillColor=#CC4125;strokeColor=#660000" parent="1" vertex="1">
          <mxGeometry x="797.4999999999999" y="289.3942901234568" width="10" height="40" as="geometry" />
        </mxCell>
        <mxCell id="27" value="&lt;&lt;ajax&gt;&gt;" style="edgeStyle=elbowEdgeStyle;elbow=vertical;verticalLabelPosition=top;verticalAlign=bottom" parent="1" source="17" target="21" edge="1">
          <mxGeometry x="540" y="270" width="100" height="100" as="geometry">
            <mxPoint x="540" y="370" as="sourcePoint" />
            <mxPoint x="640" y="270" as="targetPoint" />
            <Array as="points">
              <mxPoint x="600" y="309" />
              <mxPoint x="590" y="270" />
            </Array>
          </mxGeometry>
        </mxCell>
        <mxCell id="28" value="errors" style="edgeStyle=elbowEdgeStyle;elbow=vertical;dashed=1;verticalLabelPosition=bottom;verticalAlign=top" parent="1" source="21" target="17" edge="1">
          <mxGeometry width="100" height="100" as="geometry">
            <mxPoint x="529.7839506172838" y="280" as="sourcePoint" />
            <mxPoint x="680" y="280" as="targetPoint" />
            <Array as="points">
              <mxPoint x="593" y="348" />
            </Array>
            <mxPoint x="-2" y="12" as="offset" />
          </mxGeometry>
        </mxCell>
        <mxCell id="30" value="企业网关" style="shadow=1;fillColor=#A2C4C9;strokeColor=none" parent="1" vertex="1">
          <mxGeometry x="952.5" y="60" width="105" height="50" as="geometry" />
        </mxCell>
        <mxCell id="33" value="" style="edgeStyle=elbowEdgeStyle;elbow=horizontal;endArrow=none;dashed=1" parent="1" source="4" target="2" edge="1">
          <mxGeometry x="230.00000000000003" y="310" width="100" height="100" as="geometry">
            <mxPoint x="230.00000000000003" y="410" as="sourcePoint" />
            <mxPoint x="330" y="310" as="targetPoint" />
          </mxGeometry>
        </mxCell>
        <mxCell id="YypcNVnMSKggXqCYCxA9-98" value="&lt;span style=&quot;text-align: right&quot;&gt;基金管理人&lt;/span&gt;" style="edgeLabel;html=1;align=center;verticalAlign=middle;resizable=0;points=[];" vertex="1" connectable="0" parent="33">
          <mxGeometry relative="1" as="geometry">
            <mxPoint x="-0.1" as="offset" />
          </mxGeometry>
        </mxCell>
        <mxCell id="34" value="validate()" style="edgeStyle=elbowEdgeStyle;elbow=vertical;verticalLabelPosition=top;verticalAlign=bottom" parent="1" edge="1">
          <mxGeometry x="550" y="261.7361111111111" width="100" height="100" as="geometry">
            <mxPoint x="680" y="291.1304012345679" as="sourcePoint" />
            <mxPoint x="797.4999999999999" y="291.1304012345679" as="targetPoint" />
            <Array as="points" />
          </mxGeometry>
        </mxCell>
        <mxCell id="35" value="errors" style="edgeStyle=elbowEdgeStyle;elbow=vertical;dashed=1;verticalLabelPosition=bottom;verticalAlign=top" parent="1" edge="1">
          <mxGeometry x="560" y="309.65277777777777" width="100" height="100" as="geometry">
            <mxPoint x="797.4999999999999" y="329.0470679012346" as="sourcePoint" />
            <mxPoint x="680" y="329.0470679012346" as="targetPoint" />
            <Array as="points" />
          </mxGeometry>
        </mxCell>
        <mxCell id="38" value="" style="edgeStyle=elbowEdgeStyle;elbow=horizontal;endArrow=none;dashed=1" parent="1" edge="1">
          <mxGeometry x="932.2588734567901" y="240" width="100" height="100" as="geometry">
            <mxPoint x="802.2588734567901" y="329.3942901234568" as="sourcePoint" />
            <mxPoint x="802.2588734567901" y="370" as="targetPoint" />
            <Array as="points">
              <mxPoint x="802.2588734567901" y="350" />
            </Array>
          </mxGeometry>
        </mxCell>
        <mxCell id="42" value="" style="fillColor=#CC4125;strokeColor=#660000" parent="1" vertex="1">
          <mxGeometry x="200" y="360" width="10" height="220" as="geometry" />
        </mxCell>
        <mxCell id="43" value="             &lt;&lt;callback&gt;&gt;                                " style="edgeStyle=elbowEdgeStyle;elbow=vertical;dashed=0;verticalLabelPosition=top;verticalAlign=bottom;align=right" parent="1" source="17" target="42" edge="1">
          <mxGeometry x="190" y="329.75887345679007" width="100" height="100" as="geometry">
            <mxPoint x="500" y="310" as="sourcePoint" />
            <mxPoint x="220" y="370" as="targetPoint" />
            <Array as="points" />
          </mxGeometry>
        </mxCell>
        <mxCell id="44" value="" style="edgeStyle=none;dashed=1;endArrow=none" parent="1" source="2" target="42" edge="1">
          <mxGeometry x="50" y="300" width="100" height="100" as="geometry">
            <mxPoint x="50" y="400" as="sourcePoint" />
            <mxPoint x="150" y="300" as="targetPoint" />
          </mxGeometry>
        </mxCell>
        <mxCell id="46" value="" style="edgeStyle=elbowEdgeStyle;elbow=vertical;endArrow=none" parent="1" source="42" edge="1">
          <mxGeometry x="60" y="310" width="100" height="100" as="geometry">
            <mxPoint x="60" y="410" as="sourcePoint" />
            <mxPoint x="150" y="360" as="targetPoint" />
          </mxGeometry>
        </mxCell>
        <mxCell id="48" value="" style="fillColor=#CC4125;strokeColor=#660000" parent="1" vertex="1">
          <mxGeometry x="342.5" y="464.1666666666667" width="10" height="95.83333333333331" as="geometry" />
        </mxCell>
        <mxCell id="49" value="" style="fillColor=#CC4125;strokeColor=#660000" parent="1" vertex="1">
          <mxGeometry x="1000" y="468.3333333333333" width="10" height="81.66666666666669" as="geometry" />
        </mxCell>
        <mxCell id="50" value="" style="edgeStyle=none;endArrow=none;dashed=1" parent="1" source="30" target="49" edge="1">
          <mxGeometry x="956.5711805555559" y="205" width="100" height="100" as="geometry">
            <mxPoint x="1031.7361111111113" y="150" as="sourcePoint" />
            <mxPoint x="1031.7361111111113" y="329.3942901234568" as="targetPoint" />
          </mxGeometry>
        </mxCell>
        <mxCell id="51" value="post_comments()" style="edgeStyle=elbowEdgeStyle;elbow=vertical;verticalLabelPosition=top;verticalAlign=bottom" parent="1" edge="1">
          <mxGeometry x="212.5" y="469.58333333333337" width="100" height="100" as="geometry">
            <mxPoint x="210" y="469.58333333333337" as="sourcePoint" />
            <mxPoint x="342.5" y="469.58333333333337" as="targetPoint" />
            <Array as="points" />
          </mxGeometry>
        </mxCell>
        <mxCell id="52" value="" style="edgeStyle=none;endArrow=none;dashed=1" parent="1" source="6" target="48" edge="1">
          <mxGeometry x="376.5711805555559" y="339.6971450617284" width="100" height="100" as="geometry">
            <mxPoint x="451.7361111111112" y="284.6971450617284" as="sourcePoint" />
            <mxPoint x="451.7361111111112" y="464.0914351851852" as="targetPoint" />
          </mxGeometry>
        </mxCell>
        <mxCell id="53" value="BeginRequest()" style="edgeStyle=elbowEdgeStyle;elbow=vertical;verticalLabelPosition=top;verticalAlign=bottom" parent="1" edge="1">
          <mxGeometry x="530" y="436.8055555555556" width="100" height="100" as="geometry">
            <mxPoint x="352.5" y="477.56944444444446" as="sourcePoint" />
            <mxPoint x="1000" y="477.56944444444446" as="targetPoint" />
            <Array as="points" />
          </mxGeometry>
        </mxCell>
        <mxCell id="54" value="" style="edgeStyle=elbowEdgeStyle;elbow=vertical;dashed=1;verticalLabelPosition=bottom;verticalAlign=top" parent="1" edge="1">
          <mxGeometry x="530" y="549.0779320987654" width="100" height="100" as="geometry">
            <mxPoint x="1000" y="541.7361111111111" as="sourcePoint" />
            <mxPoint x="352.49999999999994" y="541.7361111111111" as="targetPoint" />
            <Array as="points" />
          </mxGeometry>
        </mxCell>
        <mxCell id="55" value="&lt;&lt;javascript&gt;&gt;&#xa;:Proxy" style="shadow=1;fillColor=#A2C4C9;strokeColor=none" parent="1" vertex="1">
          <mxGeometry x="1090" y="462.08333333333337" width="105" height="50" as="geometry" />
        </mxCell>
        <mxCell id="56" value="" style="edgeStyle=none;endArrow=none;dashed=1" parent="1" source="55" target="57" edge="1">
          <mxGeometry x="1204.0711805555559" y="380.08680555555554" width="100" height="100" as="geometry">
            <mxPoint x="1279.2361111111113" y="325.08680555555554" as="sourcePoint" />
            <mxPoint x="1350" y="445.08680555555554" as="targetPoint" />
          </mxGeometry>
        </mxCell>
        <mxCell id="57" value="" style="fillColor=#CC4125;strokeColor=#660000" parent="1" vertex="1">
          <mxGeometry x="1137.5" y="530" width="10" height="90" as="geometry" />
        </mxCell>
        <mxCell id="58" value="" style="fillColor=#CC4125;strokeColor=#660000" parent="1" vertex="1">
          <mxGeometry x="1350" y="540" width="10" height="70" as="geometry" />
        </mxCell>
        <mxCell id="60" value="&lt;&lt;create&gt;&gt;" style="edgeStyle=elbowEdgeStyle;elbow=vertical;verticalLabelPosition=top;verticalAlign=bottom;dashed=1" parent="1" source="49" target="55" edge="1">
          <mxGeometry x="901.25" y="322.5" width="100" height="100" as="geometry">
            <mxPoint x="1031.25" y="351.8942901234568" as="sourcePoint" />
            <mxPoint x="1148.75" y="351.8942901234568" as="targetPoint" />
            <Array as="points" />
          </mxGeometry>
        </mxCell>
        <mxCell id="61" value="&lt;&lt;ajax&gt;&gt;" style="edgeStyle=elbowEdgeStyle;elbow=vertical;verticalLabelPosition=top;verticalAlign=bottom" parent="1" source="49" target="57" edge="1">
          <mxGeometry x="1065" y="359.5" width="100" height="100" as="geometry">
            <mxPoint x="1044.7839506172838" y="359.5" as="sourcePoint" />
            <mxPoint x="1195" y="359.5" as="targetPoint" />
            <Array as="points" />
          </mxGeometry>
        </mxCell>
        <mxCell id="62" value="postComments()" style="edgeStyle=elbowEdgeStyle;elbow=vertical;verticalLabelPosition=top;verticalAlign=bottom" parent="1" edge="1">
          <mxGeometry x="1225" y="309.5" width="100" height="100" as="geometry">
            <mxPoint x="1147.5" y="542.5" as="sourcePoint" />
            <mxPoint x="1350" y="542.5" as="targetPoint" />
            <Array as="points" />
          </mxGeometry>
        </mxCell>
        <mxCell id="63" value="&lt;&lt;json&gt;&gt;" style="edgeStyle=elbowEdgeStyle;elbow=vertical;dashed=1;verticalLabelPosition=bottom;verticalAlign=top" parent="1" edge="1">
          <mxGeometry x="1075" y="396" width="100" height="100" as="geometry">
            <mxPoint x="1350" y="606.5" as="sourcePoint" />
            <mxPoint x="1147.5" y="606.5" as="targetPoint" />
            <Array as="points" />
          </mxGeometry>
        </mxCell>
        <mxCell id="64" value="&lt;&lt;service&gt;&gt;&#xa;:GimqService" style="shadow=1;fillColor=#A2C4C9;strokeColor=none" parent="1" vertex="1">
          <mxGeometry x="1302.5" y="60" width="105" height="50" as="geometry" />
        </mxCell>
        <mxCell id="65" value="" style="edgeStyle=none;endArrow=none;dashed=1" parent="1" source="64" target="58" edge="1">
          <mxGeometry x="1174.0711805555559" y="210" width="100" height="100" as="geometry">
            <mxPoint x="1222.5" y="115" as="sourcePoint" />
            <mxPoint x="1222.5" y="445" as="targetPoint" />
          </mxGeometry>
        </mxCell>
        <mxCell id="66" value="" style="fillColor=#CC4125;strokeColor=#660000" parent="1" vertex="1">
          <mxGeometry x="200" y="600" width="10" height="130" as="geometry" />
        </mxCell>
        <mxCell id="67" value="" style="edgeStyle=elbowEdgeStyle;elbow=vertical;dashed=1;verticalLabelPosition=bottom;verticalAlign=top" parent="1" edge="1">
          <mxGeometry x="507.50000000000006" y="664.3418209876543" width="100" height="100" as="geometry">
            <mxPoint x="342.5" y="549.5" as="sourcePoint" />
            <mxPoint x="210" y="549.5" as="targetPoint" />
            <Array as="points" />
          </mxGeometry>
        </mxCell>
        <mxCell id="68" value="&lt;&lt;callback&gt;&gt;" style="edgeStyle=elbowEdgeStyle;elbow=vertical;dashed=1;verticalLabelPosition=bottom;verticalAlign=bottom" parent="1" source="57" target="66" edge="1">
          <mxGeometry x="540" y="559.0779320987654" width="100" height="100" as="geometry">
            <mxPoint x="1010" y="551.7361111111111" as="sourcePoint" />
            <mxPoint x="362.49999999999994" y="551.7361111111111" as="targetPoint" />
            <Array as="points" />
          </mxGeometry>
        </mxCell>
        <mxCell id="71" value="REITs交易时序图" style="rounded=1;fontStyle=1;fillColor=#FFD966;strokeColor=none" parent="1" vertex="1">
          <mxGeometry x="567.28" width="150" height="30" as="geometry" />
        </mxCell>
        <mxCell id="72" value="opt" style="rounded=1;fontStyle=1;fillColor=#FFD966;strokeColor=none" parent="1" vertex="1">
          <mxGeometry x="152.5" y="420" width="87.5" height="30" as="geometry" />
        </mxCell>
        <mxCell id="74" value="Handle errors from Gimq" style="fillColor=#BFC8DB" parent="1" vertex="1">
          <mxGeometry x="190" y="625" width="310" height="60.55555555555554" as="geometry" />
        </mxCell>
        <mxCell id="75" value="ref" style="rounded=1;fontStyle=1;fillColor=#FFD966;strokeColor=none" parent="1" vertex="1">
          <mxGeometry x="196.25" y="632.8935185185186" width="53.75" height="25" as="geometry" />
        </mxCell>
        <mxCell id="76" value="" style="align=left;fillColor=#BFC8DB" parent="1" vertex="1">
          <mxGeometry x="189.99999999999997" y="699.7222222222223" width="1201.1944444444443" height="60.55555555555554" as="geometry" />
        </mxCell>
        <mxCell id="77" value="ref" style="rounded=1;fontStyle=1;fillColor=#FFD966;strokeColor=none" parent="1" vertex="1">
          <mxGeometry x="196.24999999999997" y="707.6157407407409" width="53.75" height="25" as="geometry" />
        </mxCell>
        <mxCell id="78" value="Request all changes" style="text;align=left" parent="1" vertex="1">
          <mxGeometry x="268.05555555555554" y="720.1157407407408" width="351.80555555555554" height="26" as="geometry" />
        </mxCell>
        <mxCell id="82" value="" style="edgeStyle=elbowEdgeStyle;elbow=vertical;endArrow=none" parent="1" edge="1">
          <mxGeometry x="59.999999999999986" y="419.7106481481482" width="100" height="100" as="geometry">
            <mxPoint x="200" y="469.7106481481482" as="sourcePoint" />
            <mxPoint x="149.99999999999997" y="469.7106481481482" as="targetPoint" />
          </mxGeometry>
        </mxCell>
        <mxCell id="83" value="" style="edgeStyle=elbowEdgeStyle;elbow=vertical;endArrow=none" parent="1" edge="1">
          <mxGeometry x="60" y="499.71064814814815" width="100" height="100" as="geometry">
            <mxPoint x="200.00000000000003" y="549.7106481481482" as="sourcePoint" />
            <mxPoint x="150" y="549.7106481481482" as="targetPoint" />
          </mxGeometry>
        </mxCell>
        <mxCell id="84" value="" style="edgeStyle=elbowEdgeStyle;elbow=vertical;endArrow=none" parent="1" edge="1">
          <mxGeometry x="59.999999999999986" y="559.7106481481482" width="100" height="100" as="geometry">
            <mxPoint x="200" y="609.7106481481482" as="sourcePoint" />
            <mxPoint x="149.99999999999997" y="609.7106481481482" as="targetPoint" />
          </mxGeometry>
        </mxCell>
        <mxCell id="85" value="" style="edgeStyle=elbowEdgeStyle;elbow=vertical;endArrow=none" parent="1" edge="1">
          <mxGeometry x="49.99999999999999" y="649.4328703703704" width="100" height="100" as="geometry">
            <mxPoint x="190.00000000000003" y="699.4328703703704" as="sourcePoint" />
            <mxPoint x="140" y="699.4328703703704" as="targetPoint" />
          </mxGeometry>
        </mxCell>
        <mxCell id="86" value="" style="edgeStyle=elbowEdgeStyle;elbow=vertical;endArrow=none" parent="1" edge="1">
          <mxGeometry x="49.99999999999993" y="709.9884259259259" width="100" height="100" as="geometry">
            <mxPoint x="189.99999999999994" y="759.9884259259259" as="sourcePoint" />
            <mxPoint x="139.99999999999994" y="759.9884259259259" as="targetPoint" />
          </mxGeometry>
        </mxCell>
        <mxCell id="87" value="{5..50ms}" style="edgeStyle=elbowEdgeStyle;elbow=horizontal;startArrow=open;endArrow=open;labelPosition=left;align=right" parent="1" edge="1">
          <mxGeometry x="41.44675925925927" y="479.1666666666667" width="100" height="100" as="geometry">
            <mxPoint x="161.44675925925927" y="469.1666666666667" as="sourcePoint" />
            <mxPoint x="161.44675925925927" y="549.1666666666667" as="targetPoint" />
          </mxGeometry>
        </mxCell>
        <mxCell id="88" value="{1..500ms}" style="edgeStyle=elbowEdgeStyle;elbow=horizontal;startArrow=open;endArrow=open;labelPosition=left;align=right" parent="1" edge="1">
          <mxGeometry x="42.89351851851853" y="560" width="100" height="100" as="geometry">
            <mxPoint x="161.44675925925927" y="550" as="sourcePoint" />
            <mxPoint x="161.44675925925927" y="610" as="targetPoint" />
          </mxGeometry>
        </mxCell>
        <mxCell id="89" value="{10..50ms}" style="edgeStyle=elbowEdgeStyle;elbow=horizontal;startArrow=open;endArrow=open;labelPosition=left;align=right" parent="1" edge="1">
          <mxGeometry width="100" height="100" as="geometry">
            <mxPoint x="153.94675925925927" y="700.2777777777778" as="sourcePoint" />
            <mxPoint x="153.94675925925927" y="760.2777777777778" as="targetPoint" />
            <mxPoint x="-4.236111111111107" y="-0.2777777777777883" as="offset" />
          </mxGeometry>
        </mxCell>
        <mxCell id="YypcNVnMSKggXqCYCxA9-90" value="" style="edgeStyle=none;endArrow=none;dashed=1" edge="1" parent="1" target="17">
          <mxGeometry x="454.0378472222224" y="174.99999999999997" width="100" height="100" as="geometry">
            <mxPoint x="514.55" y="110" as="sourcePoint" />
            <mxPoint x="514.55" y="269.3942901234568" as="targetPoint" />
          </mxGeometry>
        </mxCell>
        <mxCell id="YypcNVnMSKggXqCYCxA9-91" value="" style="fillColor=#CC4125;strokeColor=#660000" vertex="1" parent="1">
          <mxGeometry x="670" y="160.00429012345683" width="10" height="80" as="geometry" />
        </mxCell>
        <mxCell id="YypcNVnMSKggXqCYCxA9-92" value="" style="edgeStyle=none;endArrow=none;dashed=1" edge="1" parent="1" source="22" target="YypcNVnMSKggXqCYCxA9-91">
          <mxGeometry x="614.4878472222224" y="174.99999999999997" width="100" height="100" as="geometry">
            <mxPoint x="675" y="110" as="sourcePoint" />
            <mxPoint x="675" y="269.3942901234568" as="targetPoint" />
          </mxGeometry>
        </mxCell>
        <mxCell id="YypcNVnMSKggXqCYCxA9-93" value="用户名账户信息，密码，验证码(HTTP/GRPC)" style="edgeStyle=elbowEdgeStyle;elbow=vertical;verticalLabelPosition=top;verticalAlign=bottom;entryX=0;entryY=0.5;entryDx=0;entryDy=0;" edge="1" parent="1" target="YypcNVnMSKggXqCYCxA9-91">
          <mxGeometry x="372.72" y="199.72" width="100" height="100" as="geometry">
            <mxPoint x="352.50395061728386" y="199.72" as="sourcePoint" />
            <mxPoint x="620" y="200" as="targetPoint" />
            <Array as="points">
              <mxPoint x="422.72" y="199.72" />
            </Array>
          </mxGeometry>
        </mxCell>
        <mxCell id="YypcNVnMSKggXqCYCxA9-95" value="" style="edgeStyle=none;verticalLabelPosition=top;verticalAlign=bottom;endArrow=none;startArrow=classic;dashed=1;exitX=1;exitY=0.5;exitDx=0;exitDy=0;entryX=0;entryY=0.75;entryDx=0;entryDy=0;" edge="1" parent="1" target="YypcNVnMSKggXqCYCxA9-91">
          <mxGeometry x="407.5" y="132.15887345679013" width="100" height="100" as="geometry">
            <mxPoint x="210" y="220" as="sourcePoint" />
            <mxPoint x="527.5" y="219.65887345679016" as="targetPoint" />
            <Array as="points" />
          </mxGeometry>
        </mxCell>
        <mxCell id="YypcNVnMSKggXqCYCxA9-97" value="返回token" style="edgeLabel;html=1;align=center;verticalAlign=middle;resizable=0;points=[];" vertex="1" connectable="0" parent="YypcNVnMSKggXqCYCxA9-95">
          <mxGeometry relative="1" as="geometry">
            <mxPoint x="-23" as="offset" />
          </mxGeometry>
        </mxCell>
        <mxCell id="UpD4P_00_JOFMLl8YiXc-91" value="" style="fillColor=#CCD5EB" vertex="1" parent="1">
          <mxGeometry x="-60" y="-180" width="1460" height="159.69" as="geometry" />
        </mxCell>
      </root>
    </mxGraphModel>
  </diagram>
  <diagram id="u5ApIbTFqXXYxqOQHgdF" name="第 2 页">
    <mxGraphModel dx="2875" dy="1833" grid="1" gridSize="10" guides="1" tooltips="1" connect="1" arrows="1" fold="1" page="1" pageScale="1" pageWidth="827" pageHeight="1169" math="0" shadow="0">
      <root>
        <mxCell id="Qp8LGx2am25BI7LuQ1px-0" />
        <mxCell id="Qp8LGx2am25BI7LuQ1px-1" parent="Qp8LGx2am25BI7LuQ1px-0" />
        <mxCell id="DMQ4lBBP8DXpzSE-sa22-23" value="" style="rounded=0;whiteSpace=wrap;html=1;fontSize=22;strokeColor=#36393d;fillColor=#E0ECFF;" vertex="1" parent="Qp8LGx2am25BI7LuQ1px-1">
          <mxGeometry x="-1640" y="-80" width="2070" height="240" as="geometry" />
        </mxCell>
        <mxCell id="DMQ4lBBP8DXpzSE-sa22-21" value="" style="rounded=0;whiteSpace=wrap;html=1;fontSize=22;strokeColor=#36393d;fillColor=#E0ECFF;" vertex="1" parent="Qp8LGx2am25BI7LuQ1px-1">
          <mxGeometry x="-1640" y="-360" width="2070" height="240" as="geometry" />
        </mxCell>
        <mxCell id="DMQ4lBBP8DXpzSE-sa22-19" value="" style="rounded=0;whiteSpace=wrap;html=1;fontSize=22;strokeColor=#36393d;fillColor=#E0ECFF;" vertex="1" parent="Qp8LGx2am25BI7LuQ1px-1">
          <mxGeometry x="-1640" y="-650" width="2070" height="240" as="geometry" />
        </mxCell>
        <mxCell id="DMQ4lBBP8DXpzSE-sa22-17" value="" style="rounded=0;whiteSpace=wrap;html=1;fontSize=22;strokeColor=#36393d;fillColor=#E0ECFF;" vertex="1" parent="Qp8LGx2am25BI7LuQ1px-1">
          <mxGeometry x="-1635" y="-940" width="2070" height="240" as="geometry" />
        </mxCell>
        <mxCell id="zfv1P-phXISMb_NBBrQO-0" value="" style="fillColor=#DEE8FF;strokeColor=none" vertex="1" parent="Qp8LGx2am25BI7LuQ1px-1">
          <mxGeometry x="500" y="-1110" width="1920" height="1110" as="geometry" />
        </mxCell>
        <mxCell id="zfv1P-phXISMb_NBBrQO-1" value="" style="fillColor=#CCD5EB" vertex="1" parent="Qp8LGx2am25BI7LuQ1px-1">
          <mxGeometry x="-1470" y="550" width="1460" height="390" as="geometry" />
        </mxCell>
        <mxCell id="zfv1P-phXISMb_NBBrQO-73" value="REITs交易时序图" style="rounded=1;fontStyle=1;fillColor=#FFD966;strokeColor=none;fontSize=22;" vertex="1" parent="Qp8LGx2am25BI7LuQ1px-1">
          <mxGeometry x="-827" y="-1160" width="307" height="60" as="geometry" />
        </mxCell>
        <mxCell id="zfv1P-phXISMb_NBBrQO-75" value="web" style="rounded=1;whiteSpace=wrap;html=1;fillColor=#ffcd28;fontSize=22;gradientColor=#ffa500;strokeColor=#d79b00;" vertex="1" parent="Qp8LGx2am25BI7LuQ1px-1">
          <mxGeometry x="-1470" y="-1050" width="170" height="60" as="geometry" />
        </mxCell>
        <mxCell id="zfv1P-phXISMb_NBBrQO-76" value="交易网关" style="rounded=1;whiteSpace=wrap;html=1;fillColor=#dae8fc;fontSize=22;gradientColor=#7ea6e0;strokeColor=#6c8ebf;" vertex="1" parent="Qp8LGx2am25BI7LuQ1px-1">
          <mxGeometry x="-1190" y="-1050" width="170" height="60" as="geometry" />
        </mxCell>
        <mxCell id="zfv1P-phXISMb_NBBrQO-77" value="REITs服务" style="rounded=1;whiteSpace=wrap;html=1;fillColor=#d5e8d4;fontSize=22;gradientColor=#97d077;strokeColor=#82b366;" vertex="1" parent="Qp8LGx2am25BI7LuQ1px-1">
          <mxGeometry x="-940" y="-1050" width="170" height="60" as="geometry" />
        </mxCell>
        <mxCell id="zfv1P-phXISMb_NBBrQO-78" value="UUMS" style="rounded=1;whiteSpace=wrap;html=1;fillColor=#fff2cc;fontSize=22;gradientColor=#ffd966;strokeColor=#d6b656;" vertex="1" parent="Qp8LGx2am25BI7LuQ1px-1">
          <mxGeometry x="-650" y="-1050" width="170" height="60" as="geometry" />
        </mxCell>
        <mxCell id="DMQ4lBBP8DXpzSE-sa22-0" value="存储网关" style="rounded=1;whiteSpace=wrap;html=1;fillColor=#f5f5f5;fontSize=22;gradientColor=#b3b3b3;strokeColor=#666666;" vertex="1" parent="Qp8LGx2am25BI7LuQ1px-1">
          <mxGeometry x="-390" y="-1050" width="170" height="60" as="geometry" />
        </mxCell>
        <mxCell id="DMQ4lBBP8DXpzSE-sa22-1" value="企业网关" style="rounded=1;whiteSpace=wrap;html=1;fillColor=#dae8fc;fontSize=22;gradientColor=#7ea6e0;strokeColor=#6c8ebf;" vertex="1" parent="Qp8LGx2am25BI7LuQ1px-1">
          <mxGeometry x="-130" y="-1050" width="170" height="60" as="geometry" />
        </mxCell>
        <mxCell id="DMQ4lBBP8DXpzSE-sa22-2" value="业管平台" style="rounded=1;whiteSpace=wrap;html=1;fillColor=#e6d0de;fontSize=22;gradientColor=#d5739d;strokeColor=#996185;" vertex="1" parent="Qp8LGx2am25BI7LuQ1px-1">
          <mxGeometry x="110" y="-1050" width="170" height="60" as="geometry" />
        </mxCell>
        <mxCell id="DMQ4lBBP8DXpzSE-sa22-8" value="" style="endArrow=none;dashed=1;html=1;fontSize=22;entryX=0.441;entryY=0.999;entryDx=0;entryDy=0;entryPerimeter=0;" edge="1" parent="Qp8LGx2am25BI7LuQ1px-1" source="m6hWaUQ9fFUowQkMyECI-0" target="zfv1P-phXISMb_NBBrQO-75">
          <mxGeometry width="50" height="50" relative="1" as="geometry">
            <mxPoint x="-1400" y="250" as="sourcePoint" />
            <mxPoint x="-1390" y="-990" as="targetPoint" />
          </mxGeometry>
        </mxCell>
        <mxCell id="DMQ4lBBP8DXpzSE-sa22-9" value="" style="endArrow=none;dashed=1;html=1;fontSize=22;" edge="1" parent="Qp8LGx2am25BI7LuQ1px-1">
          <mxGeometry width="50" height="50" relative="1" as="geometry">
            <mxPoint x="-310" y="240" as="sourcePoint" />
            <mxPoint x="-310" y="-990" as="targetPoint" />
          </mxGeometry>
        </mxCell>
        <mxCell id="DMQ4lBBP8DXpzSE-sa22-10" value="" style="endArrow=none;dashed=1;html=1;fontSize=22;" edge="1" parent="Qp8LGx2am25BI7LuQ1px-1">
          <mxGeometry width="50" height="50" relative="1" as="geometry">
            <mxPoint x="-566" y="240" as="sourcePoint" />
            <mxPoint x="-566.25" y="-990" as="targetPoint" />
          </mxGeometry>
        </mxCell>
        <mxCell id="DMQ4lBBP8DXpzSE-sa22-11" value="" style="endArrow=none;dashed=1;html=1;fontSize=22;" edge="1" parent="Qp8LGx2am25BI7LuQ1px-1">
          <mxGeometry width="50" height="50" relative="1" as="geometry">
            <mxPoint x="-850" y="240" as="sourcePoint" />
            <mxPoint x="-850" y="-990" as="targetPoint" />
          </mxGeometry>
        </mxCell>
        <mxCell id="DMQ4lBBP8DXpzSE-sa22-12" value="" style="endArrow=none;dashed=1;html=1;fontSize=22;" edge="1" parent="Qp8LGx2am25BI7LuQ1px-1">
          <mxGeometry width="50" height="50" relative="1" as="geometry">
            <mxPoint x="-1106" y="240" as="sourcePoint" />
            <mxPoint x="-1106.25" y="-990" as="targetPoint" />
          </mxGeometry>
        </mxCell>
        <mxCell id="DMQ4lBBP8DXpzSE-sa22-13" value="" style="endArrow=none;dashed=1;html=1;fontSize=22;" edge="1" parent="Qp8LGx2am25BI7LuQ1px-1">
          <mxGeometry width="50" height="50" relative="1" as="geometry">
            <mxPoint x="-50" y="240" as="sourcePoint" />
            <mxPoint x="-45.83000000000001" y="-990" as="targetPoint" />
          </mxGeometry>
        </mxCell>
        <mxCell id="DMQ4lBBP8DXpzSE-sa22-14" value="" style="endArrow=none;dashed=1;html=1;fontSize=22;" edge="1" parent="Qp8LGx2am25BI7LuQ1px-1">
          <mxGeometry width="50" height="50" relative="1" as="geometry">
            <mxPoint x="190" y="240" as="sourcePoint" />
            <mxPoint x="194.17000000000002" y="-990" as="targetPoint" />
          </mxGeometry>
        </mxCell>
        <mxCell id="DMQ4lBBP8DXpzSE-sa22-18" value="登录认证" style="text;html=1;resizable=0;autosize=1;align=center;verticalAlign=middle;points=[];fillColor=none;strokeColor=none;rounded=0;fontSize=22;" vertex="1" parent="Qp8LGx2am25BI7LuQ1px-1">
          <mxGeometry x="-1635" y="-835" width="100" height="30" as="geometry" />
        </mxCell>
        <mxCell id="DMQ4lBBP8DXpzSE-sa22-20" value="基金申报" style="text;html=1;resizable=0;autosize=1;align=center;verticalAlign=middle;points=[];fillColor=none;strokeColor=none;rounded=0;fontSize=22;" vertex="1" parent="Qp8LGx2am25BI7LuQ1px-1">
          <mxGeometry x="-1640" y="-550" width="100" height="30" as="geometry" />
        </mxCell>
        <mxCell id="DMQ4lBBP8DXpzSE-sa22-24" value="REITs交易" style="text;html=1;resizable=0;autosize=1;align=center;verticalAlign=middle;points=[];fillColor=none;strokeColor=none;rounded=0;fontSize=22;" vertex="1" parent="Qp8LGx2am25BI7LuQ1px-1">
          <mxGeometry x="-1635" y="20" width="120" height="30" as="geometry" />
        </mxCell>
        <mxCell id="DMQ4lBBP8DXpzSE-sa22-25" value="" style="shape=umlActor;verticalLabelPosition=bottom;verticalAlign=top;html=1;outlineConnect=0;fillColor=#E0ECFF;fontSize=22;" vertex="1" parent="Qp8LGx2am25BI7LuQ1px-1">
          <mxGeometry x="-1350" y="-1035" width="20" height="30" as="geometry" />
        </mxCell>
        <mxCell id="m6hWaUQ9fFUowQkMyECI-0" value="" style="fillColor=#CC4125;strokeColor=#660000" vertex="1" parent="Qp8LGx2am25BI7LuQ1px-1">
          <mxGeometry x="-1400" y="-900" width="10" height="130" as="geometry" />
        </mxCell>
        <mxCell id="m6hWaUQ9fFUowQkMyECI-1" value="" style="endArrow=none;dashed=1;html=1;fontSize=22;" edge="1" parent="Qp8LGx2am25BI7LuQ1px-1" target="m6hWaUQ9fFUowQkMyECI-0">
          <mxGeometry width="50" height="50" relative="1" as="geometry">
            <mxPoint x="-1400.0000000000002" y="250" as="sourcePoint" />
            <mxPoint x="-1390.0000000000002" y="-990" as="targetPoint" />
          </mxGeometry>
        </mxCell>
        <mxCell id="m6hWaUQ9fFUowQkMyECI-2" value="盘前初始化" style="text;html=1;resizable=0;autosize=1;align=center;verticalAlign=middle;points=[];fillColor=none;strokeColor=none;rounded=0;fontSize=22;" vertex="1" parent="Qp8LGx2am25BI7LuQ1px-1">
          <mxGeometry x="-1640" y="-250" width="130" height="30" as="geometry" />
        </mxCell>
      </root>
    </mxGraphModel>
  </diagram>
</mxfile>
